<svg width="24" height="27" viewBox="0 0 24 27" fill="none" xmlns="http://www.w3.org/2000/svg">
<path d="M3.24992 7.5C3.24992 5.57718 4.01376 3.73311 5.3734 2.37348C6.73304 1.01384 8.5771 0.25 10.4999 0.25C12.4227 0.25 14.2668 1.01384 15.6264 2.37348C16.9861 3.73311 17.7499 5.57718 17.7499 7.5C17.7499 7.69891 17.6709 7.88968 17.5303 8.03033C17.3896 8.17098 17.1988 8.25 16.9999 8.25C16.801 8.25 16.6102 8.17098 16.4696 8.03033C16.3289 7.88968 16.2499 7.69891 16.2499 7.5C16.2499 5.97501 15.6441 4.51247 14.5658 3.43414C13.4875 2.3558 12.0249 1.75 10.4999 1.75C8.97493 1.75 7.51239 2.3558 6.43406 3.43414C5.35573 4.51247 4.74992 5.97501 4.74992 7.5C4.74992 7.69891 4.67091 7.88968 4.53025 8.03033C4.3896 8.17098 4.19884 8.25 3.99992 8.25C3.80101 8.25 3.61025 8.17098 3.46959 8.03033C3.32894 7.88968 3.24992 7.69891 3.24992 7.5ZM20.4999 13.25C19.8494 13.2494 19.2138 13.445 18.6762 13.8112C18.565 13.2991 18.3315 12.8215 17.9958 12.419C17.6601 12.0166 17.2321 11.7013 16.7482 11.5001C16.2643 11.2989 15.7389 11.2176 15.2169 11.2633C14.6948 11.309 14.1915 11.4803 13.7499 11.7625V7.5C13.7499 6.63805 13.4075 5.8114 12.798 5.2019C12.1885 4.59241 11.3619 4.25 10.4999 4.25C9.63797 4.25 8.81132 4.59241 8.20183 5.2019C7.59233 5.8114 7.24992 6.63805 7.24992 7.5V18.375L6.30867 16.8625C5.87554 16.1166 5.16384 15.5733 4.33012 15.3521C3.4964 15.1309 2.60897 15.25 1.86305 15.6831C1.11713 16.1163 0.573818 16.828 0.352642 17.6617C0.131467 18.4954 0.250542 19.3828 0.683674 20.1287L4.34867 26.3787C4.45139 26.545 4.61496 26.6647 4.80456 26.7121C4.99416 26.7596 5.1948 26.7312 5.36376 26.633C5.53273 26.5347 5.65666 26.3744 5.70918 26.1861C5.76169 25.9979 5.73864 25.7965 5.64492 25.625L1.98367 19.375C1.75161 18.973 1.68873 18.4953 1.80887 18.047C1.92901 17.5987 2.22233 17.2164 2.6243 16.9844C3.02627 16.7523 3.50396 16.6894 3.95229 16.8096C4.40062 16.9297 4.78286 17.223 5.01492 17.625C5.01838 17.6325 5.02257 17.6396 5.02742 17.6462L7.36242 21.3962C7.44839 21.535 7.57726 21.6419 7.72948 21.7007C7.8817 21.7596 8.04896 21.7671 8.20588 21.7223C8.3628 21.6775 8.50083 21.5827 8.59901 21.4524C8.69719 21.322 8.75018 21.1632 8.74992 21V7.5C8.74992 7.03587 8.9343 6.59075 9.26249 6.26256C9.59068 5.93437 10.0358 5.75 10.4999 5.75C10.9641 5.75 11.4092 5.93437 11.7374 6.26256C12.0655 6.59075 12.2499 7.03587 12.2499 7.5V16C12.2499 16.1989 12.3289 16.3897 12.4696 16.5303C12.6102 16.671 12.801 16.75 12.9999 16.75C13.1988 16.75 13.3896 16.671 13.5303 16.5303C13.6709 16.3897 13.7499 16.1989 13.7499 16V14.5C13.7499 14.0359 13.9343 13.5908 14.2625 13.2626C14.5907 12.9344 15.0358 12.75 15.4999 12.75C15.9641 12.75 16.4092 12.9344 16.7374 13.2626C17.0655 13.5908 17.2499 14.0359 17.2499 14.5V17C17.2499 17.1989 17.3289 17.3897 17.4696 17.5303C17.6102 17.671 17.801 17.75 17.9999 17.75C18.1988 17.75 18.3896 17.671 18.5303 17.5303C18.6709 17.3897 18.7499 17.1989 18.7499 17V16.5C18.7499 16.0359 18.9343 15.5908 19.2625 15.2626C19.5907 14.9344 20.0358 14.75 20.4999 14.75C20.9641 14.75 21.4092 14.9344 21.7374 15.2626C22.0655 15.5908 22.2499 16.0359 22.2499 16.5V21C22.2499 23.7663 21.3374 25.6475 21.3287 25.665C21.2417 25.8424 21.2283 26.0469 21.2912 26.2341C21.3542 26.4214 21.4885 26.5762 21.6649 26.665C21.7682 26.7198 21.8831 26.7489 21.9999 26.75C22.1395 26.7503 22.2765 26.7116 22.3953 26.6383C22.5141 26.5649 22.6101 26.4599 22.6724 26.335C22.7162 26.2475 23.7512 24.1413 23.7512 21V16.5C23.7512 16.0731 23.6671 15.6504 23.5037 15.256C23.3403 14.8616 23.1008 14.5033 22.7988 14.2015C22.4969 13.8997 22.1385 13.6603 21.744 13.497C21.3496 13.3338 20.9268 13.2498 20.4999 13.25Z" fill="white"/>
</svg>
