<svg width="176" height="13" viewBox="0 0 176 13" fill="none" xmlns="http://www.w3.org/2000/svg">
<path d="M8.59375 10.1094H4.5625L4.00781 12H0.390625L4.69531 0.546875H8.55469L12.8594 12H9.15625L8.59375 10.1094ZM7.85156 7.63281L6.58594 3.51562L5.32812 7.63281H7.85156ZM14.0156 0.546875H22.7656V3.00781H17.5703V5.00781H22.0078V7.32031H17.5703V12H14.0156V0.546875ZM23.8672 0.546875H34.625V3.375H31.0156V12H27.4766V3.375H23.8672V0.546875ZM36.2266 0.546875H45.7109V2.99219H39.7734V4.8125H45.2812V7.14844H39.7734V9.40625H45.8828V12H36.2266V0.546875ZM47.8438 12V0.546875H53.7422C54.8359 0.546875 55.6719 0.640625 56.25 0.828125C56.8281 1.01562 57.2943 1.36458 57.6484 1.875C58.0026 2.38021 58.1797 2.9974 58.1797 3.72656C58.1797 4.36198 58.0443 4.91146 57.7734 5.375C57.5026 5.83333 57.1302 6.20573 56.6562 6.49219C56.3542 6.67448 55.9401 6.82552 55.4141 6.94531C55.8359 7.08594 56.1432 7.22656 56.3359 7.36719C56.4661 7.46094 56.6536 7.66146 56.8984 7.96875C57.1484 8.27604 57.3151 8.51302 57.3984 8.67969L59.1094 12H55.1094L53.2188 8.5C52.9792 8.04688 52.7656 7.7526 52.5781 7.61719C52.3229 7.4401 52.0339 7.35156 51.7109 7.35156H51.3984V12H47.8438ZM51.3984 5.1875H52.8906C53.0521 5.1875 53.3646 5.13542 53.8281 5.03125C54.0625 4.98438 54.2526 4.86458 54.3984 4.67188C54.5495 4.47917 54.625 4.25781 54.625 4.00781C54.625 3.63802 54.5078 3.35417 54.2734 3.15625C54.0391 2.95833 53.599 2.85938 52.9531 2.85938H51.3984V5.1875ZM60.2969 0.546875H65.5547C66.5911 0.546875 67.4271 0.6875 68.0625 0.96875C68.7031 1.25 69.2318 1.65365 69.6484 2.17969C70.0651 2.70573 70.3672 3.31771 70.5547 4.01562C70.7422 4.71354 70.8359 5.45312 70.8359 6.23438C70.8359 7.45833 70.6953 8.40885 70.4141 9.08594C70.138 9.75781 69.7526 10.3229 69.2578 10.7812C68.763 11.2344 68.2318 11.5365 67.6641 11.6875C66.888 11.8958 66.1849 12 65.5547 12H60.2969V0.546875ZM63.8359 3.14062V9.39844H64.7031C65.4427 9.39844 65.9688 9.31771 66.2812 9.15625C66.5938 8.98958 66.8385 8.70312 67.0156 8.29688C67.1927 7.88542 67.2812 7.22135 67.2812 6.30469C67.2812 5.09115 67.0833 4.26042 66.6875 3.8125C66.2917 3.36458 65.6354 3.14062 64.7188 3.14062H63.8359ZM72.8438 0.546875H76.3906V12H72.8438V0.546875ZM78.9609 0.546875H82.2656L86.5781 6.88281V0.546875H89.9141V12H86.5781L82.2891 5.71094V12H78.9609V0.546875ZM92.2891 0.546875H95.5938L99.9062 6.88281V0.546875H103.242V12H99.9062L95.6172 5.71094V12H92.2891V0.546875ZM105.586 0.546875H115.07V2.99219H109.133V4.8125H114.641V7.14844H109.133V9.40625H115.242V12H105.586V0.546875ZM117.203 12V0.546875H123.102C124.195 0.546875 125.031 0.640625 125.609 0.828125C126.188 1.01562 126.654 1.36458 127.008 1.875C127.362 2.38021 127.539 2.9974 127.539 3.72656C127.539 4.36198 127.404 4.91146 127.133 5.375C126.862 5.83333 126.49 6.20573 126.016 6.49219C125.714 6.67448 125.299 6.82552 124.773 6.94531C125.195 7.08594 125.503 7.22656 125.695 7.36719C125.826 7.46094 126.013 7.66146 126.258 7.96875C126.508 8.27604 126.674 8.51302 126.758 8.67969L128.469 12H124.469L122.578 8.5C122.339 8.04688 122.125 7.7526 121.938 7.61719C121.682 7.4401 121.393 7.35156 121.07 7.35156H120.758V12H117.203ZM120.758 5.1875H122.25C122.411 5.1875 122.724 5.13542 123.188 5.03125C123.422 4.98438 123.612 4.86458 123.758 4.67188C123.909 4.47917 123.984 4.25781 123.984 4.00781C123.984 3.63802 123.867 3.35417 123.633 3.15625C123.398 2.95833 122.958 2.85938 122.312 2.85938H120.758V5.1875ZM136.938 7.32031L140.039 8.25781C139.831 9.1276 139.503 9.85417 139.055 10.4375C138.607 11.0208 138.049 11.4609 137.383 11.7578C136.721 12.0547 135.878 12.2031 134.852 12.2031C133.607 12.2031 132.589 12.0234 131.797 11.6641C131.01 11.2995 130.331 10.6615 129.758 9.75C129.185 8.83854 128.898 7.67188 128.898 6.25C128.898 4.35417 129.401 2.89844 130.406 1.88281C131.417 0.861979 132.844 0.351562 134.688 0.351562C136.13 0.351562 137.263 0.643229 138.086 1.22656C138.914 1.8099 139.529 2.70573 139.93 3.91406L136.805 4.60938C136.695 4.26042 136.581 4.00521 136.461 3.84375C136.263 3.57292 136.021 3.36458 135.734 3.21875C135.448 3.07292 135.128 3 134.773 3C133.971 3 133.357 3.32292 132.93 3.96875C132.607 4.44792 132.445 5.20052 132.445 6.22656C132.445 7.4974 132.638 8.36979 133.023 8.84375C133.409 9.3125 133.951 9.54688 134.648 9.54688C135.326 9.54688 135.836 9.35677 136.18 8.97656C136.529 8.59635 136.781 8.04427 136.938 7.32031ZM141.766 0.546875H145.305V9.17969H150.828V12H141.766V0.546875ZM159.469 0.546875H163V7.375C163 8.05208 162.893 8.69271 162.68 9.29688C162.471 9.89583 162.141 10.4219 161.688 10.875C161.24 11.3229 160.768 11.638 160.273 11.8203C159.586 12.0755 158.76 12.2031 157.797 12.2031C157.24 12.2031 156.63 12.1641 155.969 12.0859C155.312 12.0078 154.763 11.8542 154.32 11.625C153.878 11.3906 153.471 11.0599 153.102 10.6328C152.737 10.2057 152.487 9.76562 152.352 9.3125C152.133 8.58333 152.023 7.9375 152.023 7.375V0.546875H155.555V7.53906C155.555 8.16406 155.727 8.65365 156.07 9.00781C156.419 9.35677 156.901 9.53125 157.516 9.53125C158.125 9.53125 158.602 9.35938 158.945 9.01562C159.294 8.66667 159.469 8.17448 159.469 7.53906V0.546875ZM165.352 0.546875H171.977C173.081 0.546875 173.927 0.820312 174.516 1.36719C175.109 1.91406 175.406 2.59115 175.406 3.39844C175.406 4.07552 175.195 4.65625 174.773 5.14062C174.492 5.46354 174.081 5.71875 173.539 5.90625C174.362 6.10417 174.966 6.44531 175.352 6.92969C175.742 7.40885 175.938 8.01302 175.938 8.74219C175.938 9.33594 175.799 9.86979 175.523 10.3438C175.247 10.8177 174.87 11.1927 174.391 11.4688C174.094 11.6406 173.646 11.7656 173.047 11.8438C172.25 11.9479 171.721 12 171.461 12H165.352V0.546875ZM168.922 5.03906H170.461C171.013 5.03906 171.396 4.94531 171.609 4.75781C171.828 4.5651 171.938 4.28906 171.938 3.92969C171.938 3.59635 171.828 3.33594 171.609 3.14844C171.396 2.96094 171.021 2.86719 170.484 2.86719H168.922V5.03906ZM168.922 9.53906H170.727C171.336 9.53906 171.766 9.43229 172.016 9.21875C172.266 9 172.391 8.70833 172.391 8.34375C172.391 8.00521 172.266 7.73438 172.016 7.53125C171.771 7.32292 171.339 7.21875 170.719 7.21875H168.922V9.53906Z" fill="white"/>
</svg>
