<svg width="166" height="64" viewBox="0 0 166 64" fill="none" xmlns="http://www.w3.org/2000/svg">
<rect width="166" height="58" rx="5" fill="#473592"/>
<path d="M41.5938 19.9844H31.8438V18.7891H41.5938V19.9844ZM43.0625 24.6172H30.25V23.3906H43.0625V24.6172ZM37.3516 23.8438H35.8984V19.3203H37.3516V23.8438ZM41.4609 14.6094H33.3359V19.3359H31.8438V13.4219H41.4609V14.6094ZM47.9531 15.8828C47.9531 16.987 47.7839 18.0443 47.4453 19.0547C47.1068 20.0599 46.6328 20.9479 46.0234 21.7188C45.4141 22.4844 44.7031 23.0651 43.8906 23.4609L42.9609 22.2188C43.6901 21.8906 44.3385 21.401 44.9062 20.75C45.4792 20.0938 45.9245 19.3411 46.2422 18.4922C46.5651 17.638 46.7266 16.7682 46.7266 15.8828V13.4844H47.9531V15.8828ZM48.2188 15.8828C48.2188 16.7318 48.375 17.5625 48.6875 18.375C49.0052 19.1875 49.4453 19.9115 50.0078 20.5469C50.5755 21.1823 51.2135 21.6589 51.9219 21.9766L51.0312 23.1562C50.2448 22.7812 49.5417 22.224 48.9219 21.4844C48.3073 20.7448 47.8307 19.8906 47.4922 18.9219C47.1536 17.9531 46.9844 16.9401 46.9844 15.8828V13.4844H48.2188V15.8828ZM54.6797 26.3594H53.1875V12.3203H54.6797V26.3594ZM57.6094 18.9531C59.026 18.9531 60.2188 18.9245 61.1875 18.8672C62.1562 18.8047 63.1458 18.6875 64.1562 18.5156L64.3125 19.7188C63.2865 19.8958 62.2734 20.0156 61.2734 20.0781C60.2734 20.1406 59.0521 20.1719 57.6094 20.1719H56.4922V18.9531H57.6094ZM62.8438 17.1562H57.9609V19.5547H56.4922V16.0078H61.3984V14.3516H56.4688V13.1484H62.8438V17.1562ZM66.9062 20.8438H65.4297V12.3359H66.9062V20.8438ZM68.9609 17.0781H66.4453V15.8438H68.9609V17.0781ZM66.9062 26.3203H65.4297V22.7422H57.6562V21.5469H66.9062V26.3203ZM75.1172 12.5547C76.1693 12.5547 77.0677 12.6484 77.8125 12.8359C78.5573 13.0182 79.125 13.2891 79.5156 13.6484C79.9115 14.0078 80.1094 14.4427 80.1094 14.9531C80.1094 15.474 79.9115 15.9167 79.5156 16.2812C79.125 16.6406 78.5573 16.9141 77.8125 17.1016C77.0677 17.2891 76.1693 17.388 75.1172 17.3984C74.0651 17.388 73.1641 17.2891 72.4141 17.1016C71.6693 16.9141 71.0964 16.6406 70.6953 16.2812C70.2995 15.9167 70.1016 15.474 70.1016 14.9531C70.1016 14.4427 70.2995 14.0078 70.6953 13.6484C71.0964 13.2891 71.6693 13.0182 72.4141 12.8359C73.1641 12.6484 74.0651 12.5547 75.1172 12.5547ZM75.1172 13.6562C74.3776 13.6562 73.7474 13.7057 73.2266 13.8047C72.7109 13.9036 72.3203 14.0521 72.0547 14.25C71.7891 14.4479 71.6562 14.6823 71.6562 14.9531C71.6562 15.25 71.7865 15.4974 72.0469 15.6953C72.3073 15.888 72.6953 16.0339 73.2109 16.1328C73.7266 16.2318 74.362 16.2812 75.1172 16.2812C75.8724 16.2812 76.5078 16.2318 77.0234 16.1328C77.5391 16.0339 77.9271 15.8854 78.1875 15.6875C78.4531 15.4844 78.5859 15.2396 78.5859 14.9531C78.5859 14.6823 78.4505 14.4505 78.1797 14.2578C77.9141 14.0651 77.5208 13.9167 77 13.8125C76.4844 13.7083 75.8568 13.6562 75.1172 13.6562ZM81.5 19.4375H68.7344V18.25H81.5V19.4375ZM79.8828 23.7969H71.7422V25.3516H70.2812V22.7266H78.4297V21.625H70.2578V20.5156H79.8828V23.7969ZM80.2891 26.1875H70.2812V25.0391H80.2891V26.1875ZM95.125 14.1406H86.0703V12.9531H95.125V14.1406ZM95.6562 14.0625C95.6562 14.8802 95.6328 15.612 95.5859 16.2578C95.5391 16.8984 95.4245 17.6146 95.2422 18.4062L93.7969 18.25C93.9115 17.7031 93.9974 17.1901 94.0547 16.7109C94.1172 16.2318 94.1536 15.8047 94.1641 15.4297C94.1745 15.0495 94.1797 14.5938 94.1797 14.0625V12.9531H95.6562V14.0625ZM85.9062 16.7031L85.7266 15.5391L94.6406 15.2969V16.3359L85.9062 16.7031ZM97.2188 19.1484H84.4922V17.9609H97.2188V19.1484ZM95.75 23.7109H87.4453V25.4844H85.9766V22.6016H94.2734V21.4688H85.9531V20.3281H95.75V23.7109ZM96.2422 26.1484H85.9766V24.9766H96.2422V26.1484ZM108.906 20.8984H107.43V12.3359H108.906V20.8984ZM108.906 26.3203H107.43V22.8203H99.4219V21.6016H108.906V26.3203ZM99.2031 18.9531C100.604 18.9531 101.802 18.9245 102.797 18.8672C103.797 18.8047 104.82 18.6979 105.867 18.5469L106.039 19.7422C104.961 19.9089 103.911 20.0234 102.891 20.0859C101.875 20.1432 100.646 20.1719 99.2031 20.1719H98.0391V18.9531H99.2031ZM104.438 17.1562H99.4844V19.5547H98.0391V16.0078H102.969V14.3516H98.0078V13.1484H104.438V17.1562ZM117.039 15.8438H110.094V14.6484H117.039V15.8438ZM113.578 16.6797C114.167 16.6797 114.69 16.8177 115.148 17.0938C115.612 17.3646 115.974 17.7448 116.234 18.2344C116.495 18.724 116.625 19.2839 116.625 19.9141C116.625 20.5391 116.495 21.099 116.234 21.5938C115.974 22.0833 115.612 22.4688 115.148 22.75C114.69 23.0312 114.167 23.1719 113.578 23.1719C112.995 23.1719 112.471 23.0312 112.008 22.75C111.549 22.4688 111.19 22.0807 110.93 21.5859C110.674 21.0911 110.547 20.5339 110.547 19.9141C110.547 19.2943 110.674 18.737 110.93 18.2422C111.19 17.7474 111.549 17.3646 112.008 17.0938C112.471 16.8177 112.995 16.6797 113.578 16.6797ZM113.578 17.9219C113.25 17.9219 112.953 18.0078 112.688 18.1797C112.427 18.3464 112.224 18.5807 112.078 18.8828C111.932 19.1797 111.859 19.5234 111.859 19.9141C111.859 20.2995 111.932 20.6432 112.078 20.9453C112.229 21.2474 112.435 21.4792 112.695 21.6406C112.956 21.8021 113.25 21.8828 113.578 21.8828C113.911 21.8828 114.208 21.8021 114.469 21.6406C114.734 21.4792 114.943 21.2474 115.094 20.9453C115.245 20.6432 115.32 20.2995 115.32 19.9141C115.32 19.5234 115.245 19.1797 115.094 18.8828C114.943 18.5807 114.734 18.3464 114.469 18.1797C114.208 18.0078 113.911 17.9219 113.578 17.9219ZM122.109 26.3203H120.695V12.3203H122.109V26.3203ZM121.164 19.3672H118.602V18.1562H121.164V19.3672ZM119.086 25.6641H117.688V12.6484H119.086V25.6641ZM114.32 15.3906H112.852V12.7344H114.32V15.3906ZM133.898 18.1797H130.031V16.9844H133.898V18.1797ZM127.719 15.8828C127.719 16.9557 127.557 17.9922 127.234 18.9922C126.911 19.987 126.456 20.8698 125.867 21.6406C125.279 22.4115 124.596 23.0026 123.82 23.4141L122.875 22.2109C123.589 21.8724 124.219 21.3724 124.766 20.7109C125.318 20.0443 125.745 19.2891 126.047 18.4453C126.349 17.6016 126.5 16.7474 126.5 15.8828V13.4844H127.719V15.8828ZM128.008 15.8828C128.008 16.7422 128.156 17.5781 128.453 18.3906C128.755 19.1979 129.174 19.9167 129.711 20.5469C130.253 21.1719 130.872 21.6432 131.57 21.9609L130.68 23.1641C129.898 22.763 129.216 22.1953 128.633 21.4609C128.055 20.7214 127.604 19.8724 127.281 18.9141C126.964 17.9505 126.805 16.9401 126.805 15.8828V13.4844H128.008V15.8828ZM134.633 26.3594H133.156V12.3203H134.633V26.3594ZM31.2812 35.9688H28.2578V34.7422H31.2812V35.9688ZM32.3672 39.4922H30.8828V31.3203H32.3672V39.4922ZM32.3672 45.1484H23.1328V40.1406H32.3672V45.1484ZM24.6094 43.9453H30.9141V41.3203H24.6094V43.9453ZM25.4219 33.7109C25.4219 34.5755 25.2604 35.3854 24.9375 36.1406C24.6198 36.8958 24.1641 37.5573 23.5703 38.125C22.9766 38.6927 22.2812 39.1198 21.4844 39.4062L20.7109 38.2344C21.4141 37.9844 22.0286 37.6276 22.5547 37.1641C23.0859 36.7005 23.4922 36.1693 23.7734 35.5703C24.0599 34.9714 24.2031 34.3516 24.2031 33.7109V32.6406H25.4219V33.7109ZM25.7031 33.7188C25.7031 34.3073 25.8385 34.8802 26.1094 35.4375C26.3802 35.9896 26.7708 36.4844 27.2812 36.9219C27.7917 37.3594 28.3906 37.6979 29.0781 37.9375L28.3203 39.1094C27.5339 38.8333 26.8542 38.4245 26.2812 37.8828C25.7083 37.3411 25.2682 36.7109 24.9609 35.9922C24.6536 35.2734 24.5 34.5156 24.5 33.7188V32.6406H25.7031V33.7188ZM28.7188 33.375H21.1562V32.1719H28.7188V33.375ZM45.1328 39.2734H43.6562V31.3359H45.1328V39.2734ZM45.1328 45.1484H35.9375V40.0234H45.1328V45.1484ZM37.3984 43.9453H43.6797V41.2109H37.3984V43.9453ZM38.3359 33.2422C38.3359 34.1016 38.1745 34.9141 37.8516 35.6797C37.5286 36.4401 37.0625 37.1042 36.4531 37.6719C35.849 38.2344 35.138 38.6589 34.3203 38.9453L33.5781 37.7812C34.2969 37.5312 34.9219 37.1771 35.4531 36.7188C35.9896 36.2604 36.3984 35.7292 36.6797 35.125C36.9609 34.5156 37.1016 33.888 37.1016 33.2422V31.875H38.3359V33.2422ZM38.625 33.2422C38.625 33.862 38.7656 34.4583 39.0469 35.0312C39.3281 35.599 39.7292 36.1016 40.25 36.5391C40.776 36.9766 41.388 37.3125 42.0859 37.5469L41.3438 38.6875C40.5469 38.4167 39.8464 38.0156 39.2422 37.4844C38.6432 36.9479 38.1823 36.3177 37.8594 35.5938C37.5365 34.8698 37.375 34.0859 37.375 33.2422V31.875H38.625V33.2422ZM54.1328 34.8828C54.1328 35.987 53.9635 37.0443 53.625 38.0547C53.2865 39.0599 52.8125 39.9479 52.2031 40.7188C51.5938 41.4844 50.8828 42.0651 50.0703 42.4609L49.1406 41.2188C49.8698 40.8906 50.5182 40.401 51.0859 39.75C51.6589 39.0938 52.1042 38.3411 52.4219 37.4922C52.7448 36.638 52.9062 35.7682 52.9062 34.8828V32.4844H54.1328V34.8828ZM54.3984 34.8828C54.3984 35.7318 54.5547 36.5625 54.8672 37.375C55.1849 38.1875 55.625 38.9115 56.1875 39.5469C56.7552 40.1823 57.3932 40.6589 58.1016 40.9766L57.2109 42.1562C56.4245 41.7812 55.7214 41.224 55.1016 40.4844C54.487 39.7448 54.0104 38.8906 53.6719 37.9219C53.3333 36.9531 53.1641 35.9401 53.1641 34.8828V32.4844H54.3984V34.8828ZM60.8594 45.3594H59.3672V31.3203H60.8594V45.3594ZM73.0859 41.5H71.5859V31.3203H73.0859V41.5ZM75.125 36.7109H72.6328V35.4766H75.125V36.7109ZM69.2891 32.3906C69.2891 33.5938 69.026 34.6927 68.5 35.6875C67.974 36.6771 67.2161 37.5339 66.2266 38.2578C65.2422 38.9766 64.0651 39.5469 62.6953 39.9688L62.0625 38.7812C63.2448 38.4271 64.2552 37.9661 65.0938 37.3984C65.9375 36.8255 66.5833 36.1745 67.0312 35.4453C67.4792 34.7109 67.7031 33.9245 67.7031 33.0859V32.3906H69.2891ZM68.5 33.625H62.6562V32.3906H68.5V33.625ZM73.6719 45.0469H64.2031V43.8203H73.6719V45.0469ZM65.6875 44.3281H64.2031V40.4688H65.6875V44.3281ZM81.2969 31.5547C82.349 31.5547 83.2474 31.6484 83.9922 31.8359C84.737 32.0182 85.3047 32.2891 85.6953 32.6484C86.0911 33.0078 86.2891 33.4427 86.2891 33.9531C86.2891 34.474 86.0911 34.9167 85.6953 35.2812C85.3047 35.6406 84.737 35.9141 83.9922 36.1016C83.2474 36.2891 82.349 36.388 81.2969 36.3984C80.2448 36.388 79.3438 36.2891 78.5938 36.1016C77.849 35.9141 77.276 35.6406 76.875 35.2812C76.4792 34.9167 76.2812 34.474 76.2812 33.9531C76.2812 33.4427 76.4792 33.0078 76.875 32.6484C77.276 32.2891 77.849 32.0182 78.5938 31.8359C79.3438 31.6484 80.2448 31.5547 81.2969 31.5547ZM81.2969 32.6562C80.5573 32.6562 79.9271 32.7057 79.4062 32.8047C78.8906 32.9036 78.5 33.0521 78.2344 33.25C77.9688 33.4479 77.8359 33.6823 77.8359 33.9531C77.8359 34.25 77.9661 34.4974 78.2266 34.6953C78.487 34.888 78.875 35.0339 79.3906 35.1328C79.9062 35.2318 80.5417 35.2812 81.2969 35.2812C82.0521 35.2812 82.6875 35.2318 83.2031 35.1328C83.7188 35.0339 84.1068 34.8854 84.3672 34.6875C84.6328 34.4844 84.7656 34.2396 84.7656 33.9531C84.7656 33.6823 84.6302 33.4505 84.3594 33.2578C84.0938 33.0651 83.7005 32.9167 83.1797 32.8125C82.6641 32.7083 82.0365 32.6562 81.2969 32.6562ZM87.6797 38.4375H74.9141V37.25H87.6797V38.4375ZM86.0625 42.7969H77.9219V44.3516H76.4609V41.7266H84.6094V40.625H76.4375V39.5156H86.0625V42.7969ZM86.4688 45.1875H76.4609V44.0391H86.4688V45.1875ZM103.461 43.5859H90.6484V42.3672H103.461V43.5859ZM97.75 42.7109H96.2969V39.1016H97.75V42.7109ZM93.6016 34.6953H100.477V32.2812H101.938V39.4922H92.1094V32.2812H93.6016V34.6953ZM100.477 38.2891V35.8906H93.6016V38.2891H100.477ZM115.469 45.3203H114.031V31.3203H115.469V45.3203ZM114.445 38.1641H111.828V36.9219H114.445V38.1641ZM112.25 44.6172H110.859V31.6094H112.25V44.6172ZM105.617 41.0547H104.141V32.9844H105.617V41.0547ZM105.031 40.4688C105.865 40.4688 106.674 40.4349 107.461 40.3672C108.247 40.2995 109.06 40.1849 109.898 40.0234L110.078 41.3281C109.167 41.4844 108.302 41.599 107.484 41.6719C106.667 41.7396 105.849 41.7734 105.031 41.7734H104.141V40.4688H105.031ZM124.492 37.4844H121.867V36.2422H124.492V37.4844ZM120.297 35.2109C120.297 36.2161 120.169 37.1875 119.914 38.125C119.664 39.0625 119.294 39.901 118.805 40.6406C118.315 41.375 117.727 41.9531 117.039 42.375L116.109 41.2656C116.75 40.8802 117.299 40.3672 117.758 39.7266C118.216 39.0807 118.56 38.3698 118.789 37.5938C119.023 36.8177 119.141 36.0234 119.141 35.2109V32.6016H120.297V35.2109ZM120.57 35.1484C120.57 35.9245 120.677 36.6823 120.891 37.4219C121.104 38.1562 121.422 38.8307 121.844 39.4453C122.271 40.0599 122.784 40.5521 123.383 40.9219L122.555 42.0625C121.878 41.6562 121.307 41.0911 120.844 40.3672C120.38 39.638 120.031 38.8281 119.797 37.9375C119.568 37.0469 119.453 36.1172 119.453 35.1484V32.6016H120.57V35.1484ZM128.352 45.3203H126.922V31.3203H128.352V45.3203ZM125.445 44.6328H124.047V31.5859H125.445V44.6328ZM133.664 42.6172H132.203V38.5156H133.664V42.6172ZM138.883 42.6172H137.391V38.5156H138.883V42.6172ZM141.945 43.5781H129.133V42.3516H141.945V43.5781ZM135.516 32.1328C136.516 32.1328 137.406 32.2865 138.188 32.5938C138.969 32.8958 139.578 33.3255 140.016 33.8828C140.458 34.4349 140.68 35.0703 140.68 35.7891C140.68 36.513 140.458 37.151 140.016 37.7031C139.578 38.25 138.969 38.6771 138.188 38.9844C137.406 39.2865 136.516 39.4375 135.516 39.4375C134.521 39.4375 133.63 39.2865 132.844 38.9844C132.062 38.6771 131.451 38.25 131.008 37.7031C130.565 37.151 130.344 36.513 130.344 35.7891C130.344 35.0703 130.565 34.4349 131.008 33.8828C131.451 33.3255 132.062 32.8958 132.844 32.5938C133.63 32.2865 134.521 32.1328 135.516 32.1328ZM135.516 33.3359C134.786 33.3307 134.141 33.4297 133.578 33.6328C133.021 33.8307 132.583 34.1172 132.266 34.4922C131.953 34.862 131.797 35.2943 131.797 35.7891C131.797 36.2839 131.953 36.7188 132.266 37.0938C132.583 37.4688 133.023 37.7604 133.586 37.9688C134.148 38.1771 134.792 38.2812 135.516 38.2812C136.234 38.2812 136.875 38.1771 137.438 37.9688C138 37.7604 138.44 37.4688 138.758 37.0938C139.076 36.7188 139.234 36.2839 139.234 35.7891C139.234 35.2943 139.076 34.862 138.758 34.4922C138.445 34.1172 138.008 33.8307 137.445 33.6328C136.883 33.4297 136.24 33.3307 135.516 33.3359ZM144.398 40.75H142.859L142.711 32.6875H144.539L144.398 40.75ZM143.625 44.1094C143.432 44.1094 143.25 44.0573 143.078 43.9531C142.906 43.849 142.771 43.7135 142.672 43.5469C142.573 43.375 142.523 43.1901 142.523 42.9922C142.523 42.7995 142.573 42.6172 142.672 42.4453C142.771 42.2734 142.906 42.1406 143.078 42.0469C143.25 41.9479 143.432 41.8984 143.625 41.8984C143.823 41.8984 144.005 41.9479 144.172 42.0469C144.344 42.1406 144.479 42.2734 144.578 42.4453C144.682 42.6172 144.734 42.7995 144.734 42.9922C144.734 43.1901 144.682 43.375 144.578 43.5469C144.479 43.7135 144.344 43.849 144.172 43.9531C144.005 44.0573 143.823 44.1094 143.625 44.1094Z" fill="white"/>
<path d="M83 64L74.3397 58H91.6603L83 64Z" fill="#473592"/>
</svg>
